<svg xmlns="http://www.w3.org/2000/svg" version="1.1" xmlns:xlink="http://www.w3.org/1999/xlink" xmlns:svgjs="http://svgjs.dev/svgjs" width="1000" height="623" viewBox="0 0 1000 623"><g transform="matrix(1,0,0,1,-0.6060606060606233,0.2522267206477409)"><svg viewBox="0 0 396 247" data-background-color="#ffffff" preserveAspectRatio="xMidYMid meet" height="623" width="1000" xmlns="http://www.w3.org/2000/svg" xmlns:xlink="http://www.w3.org/1999/xlink"><g id="tight-bounds" transform="matrix(1,0,0,1,0.2400000000000091,-0.09999999999999432)"><svg viewBox="0 0 395.52 247.2" height="247.2" width="395.52"><g><svg></svg></g><g><svg viewBox="0 0 395.52 247.2" height="247.2" width="395.52"><g transform="matrix(1,0,0,1,75.54432,54.20800306220096)"><svg viewBox="0 0 244.43135999999998 138.78399387559807" height="138.78399387559807" width="244.43135999999998"><g><svg viewBox="0 0 244.43135999999998 138.78399387559807" height="138.78399387559807" width="244.43135999999998"><g><svg viewBox="0 0 244.43135999999998 138.78399387559807" height="138.78399387559807" width="244.43135999999998"><g><svg viewBox="0 0 244.43135999999998 138.78399387559807" height="138.78399387559807" width="244.43135999999998"><g id="textblocktransform"><svg viewBox="0 0 244.43135999999998 138.78399387559807" height="138.78399387559807" width="244.43135999999998" id="textblock"><g><svg viewBox="0 0 244.43135999999998 138.78399387559807" height="138.78399387559807" width="244.43135999999998"><g transform="matrix(1,0,0,1,0,0)"><svg width="244.43135999999998" viewBox="5.699999809265137 -35.29999923706055 62.70000076293945 35.599998474121094" height="138.78399387559807" data-palette-color="#233565"><path d="M30.85 0L16.55-16.45 9.4-9.2 9.4 0 5.7 0 5.7-35 9.4-35 9.4-13.85 29.95-35 34.2-35 19.05-19.15 35.25 0 30.85 0ZM64.65-6.7L64.65-17.5 68.2-17.5 68.2 0 64.95 0 64.95-2.95Q62.95-1.35 60.27-0.53 57.6 0.3 54.55 0.3L54.55 0.3Q49.85 0.3 45.82-1.8 41.8-3.9 39.35-7.9 36.9-11.9 36.9-17.4L36.9-17.4Q36.9-22.5 39.3-26.58 41.7-30.65 45.9-32.98 50.1-35.3 55.4-35.3L55.4-35.3Q59.4-35.3 62.75-34.02 66.1-32.75 68.4-30.25L68.4-30.25 66.1-27.9Q61.95-32 55.55-32L55.55-32Q51.3-32 47.87-30.13 44.45-28.25 42.5-24.9 40.55-21.55 40.55-17.4L40.55-17.4Q40.55-12.95 42.52-9.68 44.5-6.4 47.77-4.67 51.05-2.95 54.8-2.95L54.8-2.95Q57.55-2.95 60.12-3.88 62.7-4.8 64.65-6.7L64.65-6.7Z" opacity="1" transform="matrix(1,0,0,1,0,0)" fill="#233565" class="wordmark-text-0" data-fill-palette-color="primary" id="text-0"></path></svg></g></svg></g></svg></g></svg></g></svg></g></svg></g></svg></g><g><path d="M245.816 0c68.262 0 123.6 55.338 123.6 123.6 0 68.262-55.338 123.6-123.6 123.6-34.95 0-66.512-14.506-88.994-37.826h8.918c20.968 19.583 49.122 31.568 80.076 31.568 64.806 0 117.342-52.536 117.342-117.342 0-64.806-52.536-117.342-117.342-117.342-30.954 0-59.108 11.985-80.076 31.568l-8.918 0c22.481-23.32 54.043-37.826 88.994-37.826z" fill="#233565" stroke="transparent" data-fill-palette-color="tertiary"></path></g></svg></g><defs></defs></svg><rect width="395.52" height="247.2" fill="none" stroke="none" visibility="hidden"></rect></g></svg></g></svg>