<?xml version="1.0" encoding="UTF-8"?>
<svg version="1.1" viewBox="0 0 1000 623" xmlns="http://www.w3.org/2000/svg">
<g transform="translate(-.60606 .25223)">
<svg width="1e3" height="623" data-background-color="#ffffff" viewBox="0 0 396 247" xmlns="http://www.w3.org/2000/svg" xmlns:xlink="http://www.w3.org/1999/xlink">
<g transform="translate(.24 -.1)">
<svg width="395.52" height="247.2" viewBox="0 0 395.52 247.2">
<svg/>
<svg width="395.52" height="247.2" viewBox="0 0 395.52 247.2">
<g transform="translate(75.544 54.208)">
<svg width="244.43" height="138.78" viewBox="0 0 244.43135999999998 138.78399387559807">
<svg width="244.43" height="138.78" viewBox="0 0 244.43135999999998 138.78399387559807">
<svg width="244.43" height="138.78" viewBox="0 0 244.43135999999998 138.78399387559807">
<svg width="244.43" height="138.78" viewBox="0 0 244.43135999999998 138.78399387559807">
<svg width="244.43" height="138.78" viewBox="0 0 244.43135999999998 138.78399387559807">
<svg width="244.43" height="138.78" viewBox="0 0 244.43135999999998 138.78399387559807">
<g>
<svg width="244.43" height="138.78" data-palette-color="#233565" viewBox="5.699999809265137 -35.29999923706055 62.70000076293945 35.599998474121094">
<path class="wordmark-text-0" d="m30.85 0-14.3-16.45-7.15 7.25v9.2h-3.7v-35h3.7v21.15l20.55-21.15h4.25l-15.15 15.85 16.2 19.15h-4.4zm33.8-6.7v-10.8h3.55v17.5h-3.25v-2.95q-2 1.6-4.68 2.42-2.67 0.83-5.72 0.83-4.7 0-8.73-2.1-4.02-2.1-6.47-6.1t-2.45-9.5q0-5.1 2.4-9.18 2.4-4.07 6.6-6.4 4.2-2.32 9.5-2.32 4 0 7.35 1.28 3.35 1.27 5.65 3.77l-2.3 2.35q-4.15-4.1-10.55-4.1-4.25 0-7.68 1.87-3.42 1.88-5.37 5.23t-1.95 7.5q0 4.45 1.97 7.72 1.98 3.28 5.25 5.01 3.28 1.72 7.03 1.72 2.75 0 5.32-0.93 2.58-0.92 4.53-2.82z" fill="#233565" data-fill-palette-color="primary"/>
</svg>
</g>
</svg>
</svg>
</svg>
</svg>
</svg>
</svg>
</g>
<path d="m245.82 0c68.262 0 123.6 55.338 123.6 123.6s-55.338 123.6-123.6 123.6c-34.95 0-66.512-14.506-88.994-37.826h8.918c20.968 19.583 49.122 31.568 80.076 31.568 64.806 0 117.34-52.536 117.34-117.34s-52.536-117.34-117.34-117.34c-30.954 0-59.108 11.985-80.076 31.568h-8.918c22.481-23.32 54.043-37.826 88.994-37.826z" fill="#233565" stroke="transparent" data-fill-palette-color="tertiary"/>
</svg>
</svg>
<rect width="395.52" height="247.2" fill="none" visibility="hidden"/>
</g>
</svg>
</g>
</svg>
